<?xml version="1.0" encoding="UTF-8" standalone="no"?>
<!DOCTYPE svg PUBLIC "-//W3C//DTD SVG 1.1//EN" "http://www.w3.org/Graphics/SVG/1.1/DTD/svg11.dtd">
<svg width="100%" height="100%" viewBox="0 0 800 800" version="1.1" xmlns="http://www.w3.org/2000/svg" xmlns:xlink="http://www.w3.org/1999/xlink" xml:space="preserve" xmlns:serif="http://www.serif.com/" style="fill-rule:evenodd;clip-rule:evenodd;stroke-linejoin:round;stroke-miterlimit:2;">
    <g id="beams-bkg-publicdomainvectors--Converted-" serif:id="beams-bkg-publicdomainvectors [Converted]">
        <g id="g1091">
            <g id="g1093">
                <clipPath id="_clip1">
                    <rect x="0" y="0" width="800" height="800"/>
                </clipPath>
                <g clip-path="url(#_clip1)">
                    <path id="path1099" d="M802.1,584.16c-48.829,39.864 -104.276,66.827 -159.555,78.687c-73.998,15.818 -147.244,4.461 -201.432,-26.707c-48.685,-28.067 -81.493,-72.264 -89.906,-115.784c-7.391,-38.439 5.705,-76.932 31.362,-95.827c-28.49,11.028 -49.776,43.091 -51.442,79.878c-1.874,41.925 19.23,90.109 58.814,126.693c44.3,40.871 111.078,67.239 184.656,68.099c75.139,0.821 156.842,-24.95 227.503,-75.879l0,-39.16Z" style="fill:rgb(234,68,47);fill-rule:nonzero;"/>
                    <path id="path1101" d="M802.1,521.673c-9.267,9.586 -18.925,18.58 -28.928,26.927c-67.741,56.433 -150.696,82.927 -223.448,77.281c-65.379,-5.121 -121.952,-36.449 -151.241,-78.917c-25.743,-37.369 -29.094,-84.355 -10.078,-114.785c-23.149,21.797 -31.081,61.916 -18.393,99.302c14.515,42.547 53.885,82.516 107.149,103.926c59.396,23.828 135.435,24.716 208.228,-2.296c41.046,-15.258 80.906,-39.336 116.711,-70.816l0,-40.622Z" style="fill:rgb(123,199,42);fill-rule:nonzero;"/>
                    <path id="path1103" d="M802.1,451.543c-35.025,48.694 -79.672,86.596 -127.869,109.168c-74.535,34.809 -156.735,32.262 -212.226,-0.046c-48.416,-28.224 -74.988,-80.729 -66.07,-122.821c-15.935,33.413 -5.42,81.936 27.588,116.481c37.888,39.543 103.456,62.368 173.413,54.948c71.848,-7.669 147.565,-46.833 205.164,-111.312l0,-46.418Z" style="fill:rgb(234,68,47);fill-rule:nonzero;"/>
                    <path id="path1105" d="M802.1,2.14l-19.229,0c7.168,14.484 13.581,29.183 19.229,44.016l0,-44.016Z" style="fill:rgb(123,199,42);fill-rule:nonzero;"/>
                    <path id="path1107" d="M802.1,364.057c-9.852,23.3 -21.872,45.051 -35.773,64.756c-40.354,57.103 -96.479,96.828 -153.74,112.796c-52.39,14.555 -105.712,8.932 -144.996,-12.877c-35.599,-19.809 -59.564,-53.787 -63.2,-87.589c-3.944,37.645 20.396,80.966 61.753,105.497c46.905,27.753 114.74,32.96 179.291,9.28c60.018,-22.059 116.805,-68.729 156.665,-132.097l0,-59.766Z" style="fill:rgb(123,199,42);fill-rule:nonzero;"/>
                    <path id="path1109" d="M802.1,97.037c-8.624,-32.148 -20.904,-64.064 -36.807,-94.897l-33.217,0c2.956,5.215 5.803,10.465 8.536,15.749c36.481,70.639 52.512,147.318 48.089,218.435c-8.144,129.603 -89.281,237.863 -183.264,270.081c-80.701,27.547 -168.572,-6.476 -192.45,-64.422c13.005,63.418 106.037,111.173 196.068,85.378c51.636,-14.846 102.22,-50.109 139.768,-100.593c23.265,-31.301 41.494,-68.413 53.277,-109.041l0,-220.69Z" style="fill:rgb(234,68,47);fill-rule:nonzero;"/>
                    <path id="path1111" d="M678.7,2.14c39.495,59.769 63.187,125.9 67.763,190.092c8.3,118.801 -49.523,227.943 -130.508,272.807c-70.472,38.933 -157.968,24.548 -194.959,-24.588c27.447,53.394 112.721,79.89 188.188,49.605c87.725,-35.365 160.204,-140.607 164.619,-263.891c2.562,-73.698 -19.132,-152.517 -61.547,-224.025l-33.556,0Z" style="fill:rgb(123,199,42);fill-rule:nonzero;"/>
                    <path id="path1113" d="M625.701,2.14c24.25,30.255 43.562,62.961 56.927,96.928c45.615,116.492 19.563,244.632 -49.961,312.519c-60.606,59.03 -154.714,66.954 -204.855,25.262c40,45.623 127.535,52.879 193.891,8.68c76.388,-51.028 124.552,-163.996 106.285,-281.118c-8.757,-55.632 -32.3,-111.523 -67.925,-162.271l-34.362,0Z" style="fill:rgb(234,68,47);fill-rule:nonzero;"/>
                    <path id="path1115" d="M569.611,2.14c91.436,97.181 118.922,234.696 76.802,330.023c-40.364,90.96 -146.89,133.941 -213.429,99.428c53.549,38.922 149.747,21.617 204.643,-45.775c63.304,-77.956 72.992,-214.42 8.417,-327.76c-11.076,-19.395 -24.147,-38.135 -39.011,-55.916l-37.422,0Z" style="fill:rgb(123,199,42);fill-rule:nonzero;"/>
                    <path id="path1117" d="M505.963,2.14c65.441,51.929 108.241,123.272 119.932,193.884c11.813,71.585 -8.914,142.305 -50.411,185.943c-37.919,39.738 -94.081,55.914 -139.265,43.182c35.218,15.83 81.085,12.947 119.477,-8.785c41.537,-23.561 75.224,-68.697 89.215,-123.103c15.153,-58.968 7.613,-128.866 -23.748,-192.494c-17.526,-35.552 -42.463,-69.143 -73.355,-98.627l-41.845,0Z" style="fill:rgb(234,68,47);fill-rule:nonzero;"/>
                    <path id="path1119" d="M2.14,2.14l0,31.165c9.439,-5.812 19.012,-11.286 28.696,-16.417c10.025,-5.304 20.177,-10.219 30.427,-14.748l-59.123,0Z" style="fill:rgb(123,199,42);fill-rule:nonzero;"/>
                    <path id="path1121" d="M424.949,2.14c65.836,33.575 117.295,85.557 144.439,143.768c31.716,68.225 29.351,144.985 -1.847,198.651c-28.489,48.825 -82.062,77.098 -130.133,73.442c50.277,11.563 111.852,-14.801 145.644,-66.402c37.468,-57.438 42.461,-144.01 6.909,-220.876c-22.706,-49.034 -61.518,-93.972 -111.233,-128.583l-53.779,0Z" style="fill:rgb(123,199,42);fill-rule:nonzero;"/>
                    <path id="path1123" d="M105.312,2.14c-13.973,4.796 -27.833,10.311 -41.507,16.556c-21.058,9.636 -41.692,20.945 -61.665,33.828l0,37.399c26.981,-19.232 55.452,-35.332 84.705,-48.012c92.562,-40.048 193.36,-44.766 276.636,-17.738c77.132,25.087 139.055,77.494 170.1,138.819c28.478,56.263 30.496,120.335 8.17,168.435c-20.634,44.334 -62.998,73.965 -105.215,79.193c45.176,1.509 93.915,-26.307 119.467,-72.072c27.948,-50.099 29.616,-120.515 0.824,-183.481c-29.86,-65.2 -91.798,-122.546 -170.692,-152.927l-280.823,0Z" style="fill:rgb(234,68,47);fill-rule:nonzero;"/>
                    <path id="path1125" d="M2.14,150.491c12.148,-10.403 24.733,-20.039 37.691,-28.843c79.789,-54.141 173.446,-76.757 256.428,-66.551c76.8,9.492 144.321,47.224 184.537,98.928c36.869,47.434 50.395,107.063 38.008,156.091c-11.499,45.329 -46.443,80.14 -85.077,93.297c40.589,-6.586 79.934,-37.149 97.604,-80.605c19.096,-47.133 14.016,-108.421 -15.908,-161.097c-32.728,-57.432 -94.496,-105.055 -169.788,-126.007c-81.352,-22.592 -178.246,-14.212 -266.18,27.645c-26.759,12.755 -52.728,28.515 -77.315,47.022l0,40.12Z" style="fill:rgb(123,199,42);fill-rule:nonzero;"/>
                    <path id="path1127" d="M2.14,217.571c48.811,-51.724 108.379,-88.704 169.731,-106.367c81.989,-23.537 166.882,-12.319 227.544,25.265c55.168,34.244 89.829,90.947 92.068,144.55c2.006,49.201 -25.816,93.637 -62.308,115.724c37.94,-14.424 70.446,-51.442 78.117,-97.026c8.316,-49.436 -10.631,-107.538 -52.001,-151.052c-45.28,-47.598 -116.936,-78.336 -194.976,-79.396c-84.506,-1.101 -176.283,32.391 -250.198,96.404c-2.681,2.327 -5.341,4.691 -7.977,7.094l0,44.804Z" style="fill:rgb(234,68,47);fill-rule:nonzero;"/>
                    <path id="path1129" d="M2.14,295.561c0.264,-0.389 0.528,-0.777 0.793,-1.164c63.652,-92.91 164.374,-147.802 256.536,-149.814c82.479,-1.706 157.128,40.132 187.162,98.005c26.852,51.841 11.753,113.752 -23.476,148.323c36.541,-23.97 60.906,-72.567 52.725,-122.202c-9.079,-54.508 -53.625,-108.076 -116.419,-134.154c-69.49,-28.766 -160.618,-24.778 -241.534,16.221c-42.571,21.617 -82.206,53.373 -115.787,92.809l0,51.976Z" style="fill:rgb(123,199,42);fill-rule:nonzero;"/>
                    <path id="path1131" d="M65.619,800c-14.007,-25.803 -41.716,-58.564 -54.238,-91.056c-3.353,-8.719 -6.432,-17.489 -9.241,-26.295l0,117.351l63.479,0Z" style="fill:rgb(234,68,47);fill-rule:nonzero;"/>
                    <path id="path1133" d="M2.14,406.199c26.587,-75.583 75.787,-137.783 134.455,-174.964c57.27,-36.259 123.55,-48.446 179.046,-36.206c50.586,11.207 92.276,43.378 110.214,82.664c16.565,36.403 8.708,77.62 -9.867,108.486c29.444,-31.702 41.959,-83.743 21.005,-128.643c-23.198,-49.6 -81.476,-88.417 -149.456,-94.764c-75.61,-6.989 -162.682,25.057 -227.861,90.352c-21.895,21.981 -41.272,47.655 -57.536,76.113l0,76.962Z" style="fill:rgb(234,68,47);fill-rule:nonzero;"/>
                    <path id="path1135" d="M120.044,800c-41.697,-56.472 -69.628,-119.649 -81.951,-182.763c-14.817,-76.108 -6.937,-152.092 19.511,-215.182c47.584,-113.23 160.463,-179.124 249.303,-164.51c39.425,6.519 73.55,27.932 91.976,56.587c17.262,26.885 16.83,59.813 9.201,88.733c14.529,-29.538 20.436,-66.144 4.669,-98.172c-17.014,-34.462 -54.148,-62.328 -98.954,-72.396c-49.095,-10.997 -107.539,-1.361 -159.278,28.848c-56.136,32.834 -104.416,89.68 -131.638,160.159c-9.602,24.911 -16.572,51.503 -20.743,79.148l0,124.712c2.52,17.249 6.089,34.545 10.745,51.761c12.63,46.559 33.002,92.566 60.614,135.575c1.612,2.511 3.248,5.011 4.908,7.5l41.637,0Z" style="fill:rgb(123,199,42);fill-rule:nonzero;"/>
                    <path id="path1137" d="M187.076,800c-85.673,-97.925 -120.737,-225.373 -98.393,-329.316c23.194,-107.324 107.937,-185.107 188.196,-191.46c67.79,-5.271 121.326,48.672 123.033,102.739c4.427,-28.135 2.612,-58.45 -15.211,-82.011c-19.048,-25.168 -52.045,-42.657 -89.062,-46.264c-83.694,-8.068 -185.215,58.635 -225.787,166.547c-41.941,111.884 -17.813,262.465 72.699,379.765l44.525,0Z" style="fill:rgb(234,68,47);fill-rule:nonzero;"/>
                    <path id="path1139" d="M259.551,800c-8.874,-7.813 -17.338,-15.932 -25.362,-24.321c-50.654,-52.996 -83.684,-116.827 -96.181,-180.035c-11.643,-58.964 -5.307,-117.295 15.489,-164.627c19.184,-43.609 50.802,-77.768 86.444,-96.014c61.686,-31.483 133.547,-1.268 152.032,49.221c-8.333,-52.101 -64.553,-97.999 -129.158,-85.047c-77.242,15.583 -151.034,101.411 -161.583,209.6c-9.264,96.022 30.736,206.171 110.688,291.223l47.631,0Z" style="fill:rgb(123,199,42);fill-rule:nonzero;"/>
                    <path id="path1141" d="M345.316,800c-19.947,-12.301 -38.433,-26.087 -55.161,-41.133c-56.192,-50.58 -92.346,-115.198 -104.048,-178.52c-10.679,-58.008 -0.691,-114.706 24.569,-156.268c22.767,-37.396 58.355,-62.299 93.277,-67.34c31.616,-4.528 62.152,9.605 81.239,32.706c-25.227,-47.84 -101.141,-67.594 -157.431,-25.389c-32.904,24.731 -58.921,65.283 -70.428,113.421c-12.485,52.443 -7.777,113.712 15.788,172.18c22.415,55.459 61.778,108.251 114.316,150.343l57.879,0Z" style="fill:rgb(234,68,47);fill-rule:nonzero;"/>
                    <path id="path1143" d="M802.1,800l0,-40.445c-1.885,0.91 -3.824,1.861 -5.817,2.85c-29.115,14.474 -59.084,25.946 -89.286,34.363c-4.081,1.136 -8.169,2.212 -12.257,3.232l107.36,0Z" style="fill:rgb(123,199,42);fill-rule:nonzero;"/>
                    <path id="path1145" d="M473.051,800c-31.232,-8.141 -60.638,-19.759 -87.292,-34.52c-80.152,-44.448 -134.604,-116.808 -150.803,-188.785c-14.273,-63.699 2.149,-126.486 37.291,-161.592c30.489,-30.383 76.481,-36.384 108.2,-18.108c-23.002,-21.275 -56.978,-30.928 -88.475,-19.866c-35.332,12.45 -67.224,47.128 -82.02,92.455c-16.531,50.805 -12.18,114.633 15.687,174.019c29.236,62.244 84.037,119.22 155.621,156.397l91.791,0Z" style="fill:rgb(123,199,42);fill-rule:nonzero;"/>
                    <path id="path1147" d="M802.1,702.148c-0.403,0.236 -0.805,0.472 -1.209,0.707c-98.615,57.318 -210.996,73.8 -305.314,52.152c-85.972,-19.798 -156.112,-71.075 -192.304,-132.604c-32.065,-54.643 -36.598,-117.04 -16.194,-160.97c17.733,-38.1 56.726,-60.489 91.248,-55.412c-36.447,-14.957 -85.596,1.664 -110.123,42.84c-28.913,48.632 -27.392,124.77 11.032,190.944c43.845,75.338 133.909,136.503 242.075,152.483c58.389,8.601 121.638,4.567 183.83,-13.115c32.134,-9.154 64.003,-21.906 94.807,-38.158c0.716,-0.378 1.435,-0.767 2.152,-1.168l0,-37.699Z" style="fill:rgb(234,68,47);fill-rule:nonzero;"/>
                    <path id="path1149" d="M802.1,644.019c-1.431,0.977 -2.864,1.946 -4.303,2.904c-80.122,53.326 -172.465,75.9 -254.308,67.569c-74.956,-7.68 -140.586,-41.228 -181.424,-87.565c-36.522,-41.508 -52.658,-93.24 -45.708,-135.902c6.162,-37.52 32.09,-67.894 62.712,-75.5c-32.756,-0.546 -66.254,23.558 -79.576,60.115c-15.285,42.123 -7.073,98.979 25.231,147.861c36.435,55.024 102.595,99.635 182.38,116.194c87.495,18.101 190.521,2.229 281.96,-49.866c4.372,-2.494 8.719,-5.072 13.036,-7.726l0,-38.084Z" style="fill:rgb(123,199,42);fill-rule:nonzero;"/>
                </g>
            </g>
        </g>
    </g>
</svg>
